HIERARCHY
ROOT Hips
{
 OFFSET 0.000000 0.000000 0.000000
 CHANNELS 6 Xposition Yposition Zposition Yrotation Xrotation Zrotation
 JOINT Chest
 {
  OFFSET 0.000000 9.585900 0.002600
  CHANNELS 3 Yrotation Xrotation Zrotation
  JOINT Chest2
  {
   OFFSET 0.000000 9.601200 -0.005300
   CHANNELS 3 Yrotation Xrotation Zrotation
   JOINT Chest3
   {
    OFFSET 0.000000 9.561800 0.000000
    CHANNELS 3 Yrotation Xrotation Zrotation
    JOINT Chest4
    {
     OFFSET 0.000000 9.552100 0.000000
     CHANNELS 3 Yrotation Xrotation Zrotation
     JOINT Neck
     {
      OFFSET 0.000000 14.453000 0.000000
      CHANNELS 3 Yrotation Xrotation Zrotation
      JOINT Head
      {
       OFFSET 0.000000 8.936500 -0.011300
       CHANNELS 3 Yrotation Xrotation Zrotation
       End Site
       {
        OFFSET 0.000000 17.073600 -0.006000
       }
      }
     }
     JOINT RightCollar
     {
      OFFSET -2.921100 9.558500 0.000000
      CHANNELS 3 Yrotation Xrotation Zrotation
      JOINT RightShoulder
      {
       OFFSET -13.519700 0.000000 0.000000
       CHANNELS 3 Yrotation Xrotation Zrotation
       JOINT RightElbow
       {
        OFFSET 0.000000 -29.696600 0.000000
        CHANNELS 3 Yrotation Xrotation Zrotation
        JOINT RightWrist
        {
         OFFSET 0.000000 -24.004700 0.000000
         CHANNELS 3 Yrotation Xrotation Zrotation
         End Site
         {
          OFFSET 0.000000 -17.728500 0.000000
         }
        }
       }
      }
     }
     JOINT LeftCollar
     {
      OFFSET 2.921100 9.558500 0.000000
      CHANNELS 3 Yrotation Xrotation Zrotation
      JOINT LeftShoulder
      {
       OFFSET 13.519700 0.000000 0.000000
       CHANNELS 3 Yrotation Xrotation Zrotation
       JOINT LeftElbow
       {
        OFFSET 0.000000 -29.696600 0.000000
        CHANNELS 3 Yrotation Xrotation Zrotation
        JOINT LeftWrist
        {
         OFFSET 0.000000 -24.004700 0.000000
         CHANNELS 3 Yrotation Xrotation Zrotation
         End Site
         {
          OFFSET 0.000000 -17.728500 0.000000
         }
        }
       }
      }
     }
    }
   }
  }
 }
 JOINT RightHip
 {
  OFFSET -7.771700 -0.012900 -0.001300
  CHANNELS 3 Yrotation Xrotation Zrotation
  JOINT RightKnee
  {
   OFFSET 0.000000 -40.869800 0.001200
   CHANNELS 3 Yrotation Xrotation Zrotation
   JOINT RightAnkle
   {
    OFFSET 0.000000 -39.717900 0.002100
    CHANNELS 3 Yrotation Xrotation Zrotation
    JOINT RightToe
    {
     OFFSET 0.000000 -4.965400 11.033500
     CHANNELS 3 Yrotation Xrotation Zrotation
     End Site
     {
      OFFSET 0.000000 -1.423100 5.872300
     }
    }
   }
  }
 }
 JOINT LeftHip
 {
  OFFSET 7.771700 -0.012900 -0.001300
  CHANNELS 3 Yrotation Xrotation Zrotation
  JOINT LeftKnee
  {
   OFFSET 0.000000 -40.869800 0.001200
   CHANNELS 3 Yrotation Xrotation Zrotation
   JOINT LeftAnkle
   {
    OFFSET 0.000000 -39.717900 0.002100
    CHANNELS 3 Yrotation Xrotation Zrotation
    JOINT LeftToe
    {
     OFFSET 0.000000 -4.965400 11.033500
     CHANNELS 3 Yrotation Xrotation Zrotation
     End Site
     {
      OFFSET 0.000000 -1.423100 5.872300
     }
    }
   }
  }
 }
}
MOTION
Frames: 9
Frame Time: 0.008333
0.000000 85.388000 0.000000 0.000000 -5.767877 0.000000 0.000000 11.653817 0.000000 0.000000 -5.885947 0.000000 0.000000 -0.000000 0.000000 0.000000 -0.000000 0.000000 0.000000 12.528835 0.000000 0.000000 0.711642 0.000000 0.000000 -0.000000 0.000000 0.000000 0.000000 -90.000000 0.000000 -2.309062 0.000000 0.000000 2.309062 0.000000 0.000000 -0.000000 0.000000 0.000000 -0.000000 90.000000 0.000000 -2.309062 0.000000 0.000000 2.309062 0.000000 0.000000 8.520406 0.000000 0.000000 1.905762 0.000000 -0.000000 -4.658285 0.000000 0.000000 -0.000000 0.000000 0.000000 8.520406 0.000000 0.000000 1.905762 0.000000 -0.000000 -4.658285 0.000000 0.000000 -0.000000 0.000000
-117.346202 57.867058 101.581690 -179.754238 -33.569798 -1.902212 2.657946 23.711138 2.484860 0.327662 3.613117 0.303935 0.537041 5.810764 0.499754 2.126795 19.924263 2.011042 1.081811 15.186546 -0.458217 2.091713 -7.569202 -1.154114 5.308243 -3.641154 -2.128969 1.111342 -14.717310 -9.980010 152.072255 -43.870082 -139.053040 19.282416 -13.683475 -51.434735 -7.562353 -5.474604 -2.242010 10.347248 -12.286930 -0.325161 -136.609433 -27.163414 134.841222 -15.238632 -18.375102 36.393200 5.007156 -41.433445 -6.553096 -12.230292 66.611029 -12.458659 7.003222 24.952407 3.968813 -0.392631 -16.883340 3.849615 -8.940298 -39.454750 0.822430 27.081927 63.660708 24.045756 -16.448420 7.630859 -2.615908 -0.269778 -0.047748 -0.139746
-117.344691 57.867169 101.573993 -179.737853 -33.504121 -1.910012 2.686420 23.688472 2.489467 0.365918 3.626231 0.292391 0.508322 5.769970 0.509685 2.195407 19.890618 1.987677 1.106053 15.203127 -0.405267 2.191156 -7.543207 -1.138438 5.154690 -3.599359 -2.052969 0.978367 -14.728255 -9.879650 151.945044 -43.796406 -139.036249 19.273455 -13.690170 -51.500596 -7.598031 -5.406233 -2.233419 10.448579 -12.426278 -0.306433 -136.604203 -27.109397 134.962923 -15.286271 -18.320807 36.454107 4.940827 -41.504919 -6.472544 -12.253625 66.619959 -12.582586 7.002905 24.934223 4.002863 -0.392214 -16.884374 3.860684 -8.948232 -39.524071 0.798975 27.112343 63.665996 24.113607 -16.437370 7.609903 -2.622185 -0.277820 -0.043557 -0.145174
-117.340632 57.868820 101.562954 -179.734163 -33.444052 -1.924470 2.773472 23.700266 2.513133 0.338181 3.582194 0.300963 0.552345 5.762595 0.493037 2.205303 19.846676 1.994193 1.148624 15.218728 -0.370435 2.283155 -7.517423 -1.116351 5.018039 -3.549323 -1.991955 0.839972 -14.739526 -9.774823 151.814296 -43.724300 -139.025259 19.267759 -13.691917 -51.568169 -7.611474 -5.333212 -2.245676 10.558928 -12.571946 -0.283594 -136.602245 -27.059987 135.098272 -15.331045 -18.269672 36.516166 4.874251 -41.572970 -6.372950 -12.288111 66.630278 -12.713932 7.002725 24.921933 4.036746 -0.389153 -16.892319 3.868561 -8.965100 -39.584198 0.810996 27.100911 63.694019 24.130842 -16.422041 7.569667 -2.634119 -0.272471 -0.032582 -0.141675
-117.339480 57.870130 101.551461 -179.720092 -33.372606 -1.926051 2.821217 23.678121 2.511915 0.293917 3.538821 0.314904 0.594443 5.764774 0.474904 2.233348 19.818363 1.990734 1.200009 15.229489 -0.346249 2.370002 -7.496951 -1.089798 4.885856 -3.495945 -1.936309 0.703319 -14.749828 -9.668457 151.662270 -43.651564 -139.009792 19.263581 -13.698505 -51.630371 -7.630236 -5.263770 -2.257159 10.689797 -12.714499 -0.269435 -136.588768 -27.006113 135.243316 -15.373635 -18.222328 36.585206 4.844783 -41.647701 -6.339346 -12.303783 66.648008 -12.792766 7.027516 24.902923 4.076186 -0.409954 -16.898149 3.873826 -8.977990 -39.657414 0.802166 27.084256 63.712950 24.139042 -16.415498 7.546767 -2.648202 -0.282023 -0.033231 -0.131078
-117.339198 57.871437 101.539439 -179.710569 -33.295353 -1.919063 2.829350 23.620456 2.496860 0.320080 3.546442 0.304588 0.615798 5.749391 0.467686 2.251312 19.788406 1.994635 1.250102 15.236000 -0.320452 2.453966 -7.484465 -1.059962 4.746964 -3.439371 -1.877566 0.573226 -14.762540 -9.558449 151.474754 -43.572710 -138.981527 19.260829 -13.713524 -51.683529 -7.651761 -5.189124 -2.270859 10.826398 -12.863640 -0.253751 -136.563767 -26.944848 135.397765 -15.410170 -18.178955 36.655892 4.795647 -41.729193 -6.267040 -12.377217 66.655538 -12.958261 7.001422 24.886058 4.087016 -0.385791 -16.900487 3.888380 -8.962399 -39.738347 0.743214 27.112856 63.714535 24.217039 -16.383540 7.529939 -2.631923 -0.313422 -0.034944 -0.154578
-117.333192 57.872650 101.527623 -179.706326 -33.210697 -1.942674 2.856369 23.553312 2.518317 0.347238 3.554315 0.295461 0.595177 5.727277 0.476441 2.301139 19.769514 1.975051 1.298331 15.239287 -0.292407 2.533713 -7.477985 -1.025323 4.641065 -3.408043 -1.818389 0.414479 -14.749546 -9.443777 151.245703 -43.483055 -138.938028 19.262883 -13.737712 -51.727295 -7.675839 -5.111160 -2.282654 10.974932 -13.019017 -0.241868 -136.529765 -26.876256 135.561598 -15.441108 -18.142780 36.721022 4.724126 -41.815430 -6.156510 -12.460681 66.649130 -13.112468 6.975156 24.882935 4.071458 -0.357444 -16.907144 3.910907 -8.991053 -39.819517 0.769976 27.113117 63.728813 24.238648 -16.369646 7.506680 -2.636997 -0.320532 -0.030347 -0.154719
-117.330740 57.876286 101.511754 -179.689935 -33.149227 -1.951017 2.915105 23.549499 2.524756 0.328623 3.522798 0.300340 0.576054 5.704190 0.483518 2.353260 19.753087 1.952951 1.343397 15.239903 -0.261760 2.606627 -7.476501 -0.984713 4.480667 -3.335845 -1.753755 0.307338 -14.779679 -9.324718 150.975495 -43.379441 -138.880405 19.271051 -13.769115 -51.761528 -7.704602 -5.029754 -2.288045 11.137978 -13.180068 -0.238586 -136.485898 -26.797702 135.728796 -15.472888 -18.113926 36.783191 4.672470 -41.872538 -6.083648 -12.525035 66.655568 -13.255568 6.973911 24.851283 4.092000 -0.358958 -16.901263 3.926702 -9.007871 -39.879953 0.763219 27.124026 63.740576 24.269600 -16.375157 7.489518 -2.642299 -0.312630 -0.032984 -0.156088
-117.331558 57.879961 101.495508 -179.659418 -33.085116 -1.946534 2.903399 23.506667 2.501518 0.356149 3.532333 0.290881 0.583237 5.688012 0.479897 2.383867 19.730519 1.946824 1.385682 15.237871 -0.228656 2.673393 -7.480116 -0.938548 4.317135 -3.262917 -1.684108 0.196880 -14.814229 -9.204728 150.663037 -43.256204 -138.802327 19.278058 -13.802858 -51.787306 -7.735712 -4.945701 -2.289664 11.316701 -13.344436 -0.243479 -136.429379 -26.706892 135.894621 -15.504830 -18.090020 36.845183 4.632273 -41.931493 -6.036238 -12.576986 66.678602 -13.404729 6.977541 24.786963 4.149391 -0.358750 -16.879899 3.925535 -9.012058 -39.948718 0.719229 27.138359 63.751324 24.312109 -16.379421 7.477713 -2.642064 -0.319378 -0.044425 -0.157803
